<svg width="58" height="991" viewBox="0 0 58 991" fill="none" xmlns="http://www.w3.org/2000/svg">
<rect opacity="0.3" width="15" height="2.5" rx="1.25" transform="matrix(-1 0 0 1 39 974.75)" fill="#A1A5B7"/>
<path d="M36.7563 975.693L34.4696 973.787C33.8818 973.297 33.8415 972.409 34.3825 971.868C34.8696 971.38 35.6521 971.357 36.167 971.815L40.0342 975.253C40.4817 975.65 40.4817 976.35 40.0342 976.747L36.167 980.185C35.6521 980.643 34.8696 980.62 34.3825 980.132C33.8415 979.591 33.8818 978.703 34.4696 978.213L36.7563 976.307C36.9482 976.147 36.9482 975.853 36.7563 975.693Z" fill="#A1A5B7"/>
<path opacity="0.5" d="M34 966.75V968.75C34 969.302 33.5523 969.75 33 969.75H32.5C31.9477 969.75 31.5 969.302 31.5 968.75V968.25C31.5 967.698 31.0523 967.25 30.5 967.25H21.25C20.6977 967.25 20.25 967.698 20.25 968.25V983.75C20.25 984.302 20.6977 984.75 21.25 984.75H30.5C31.0523 984.75 31.5 984.302 31.5 983.75V983.25C31.5 982.698 31.9477 982.25 32.5 982.25H33C33.5523 982.25 34 982.698 34 983.25V985.25C34 986.355 33.1046 987.25 32 987.25H19.75C18.6454 987.25 17.75 986.355 17.75 985.25V966.75C17.75 965.645 18.6454 964.75 19.75 964.75H32C33.1046 964.75 34 965.645 34 966.75Z" fill="#A1A5B7"/>
<path opacity="0.3" d="M41.625 402.375V403.75C41.625 404.5 41.125 405 40.5 405.125L38.875 405.375C38.625 406.375 38.25 407.375 37.625 408.25L38.625 409.625C39 410.125 39 411 38.5 411.5L37.5 412.5C37 413 36.25 413 35.625 412.625L34.25 411.625C33.375 412.125 32.375 412.625 31.375 412.875L31.125 414.5C31 415.125 30.375 415.625 29.75 415.625H28.375C27.625 415.625 27.125 415.125 27 414.5L26.75 412.875C25.75 412.625 24.75 412.25 23.875 411.625L22.5 412.625C22 413 21.125 413 20.625 412.5L19.625 411.5C19.125 411 19.125 410.25 19.5 409.625L20.5 408.25C20 407.375 19.5 406.375 19.25 405.375L17.625 405.125C17 405 16.5 404.375 16.5 403.75V402.375C16.5 401.625 17 401.125 17.625 401L19.25 400.75C19.5 399.75 19.875 398.75 20.5 397.875L19.5 396.5C19.125 396 19.125 395.125 19.625 394.625L20.625 393.625C21.125 393.125 21.875 393.125 22.5 393.5L23.875 394.5C24.75 394 25.75 393.5 26.75 393.25L27 391.625C27.125 391 27.75 390.5 28.375 390.5H29.75C30.5 390.5 31 391 31.125 391.625L31.375 393.25C32.375 393.5 33.375 393.875 34.25 394.5L35.625 393.5C36.125 393.125 37 393.125 37.5 393.625L38.5 394.625C39 395.125 39 395.875 38.625 396.5L37.625 397.875C38.125 398.75 38.625 399.75 38.875 400.75L40.5 401C41.125 401.125 41.625 401.75 41.625 402.375ZM29.125 398.75C26.75 398.75 24.75 400.75 24.75 403.125C24.75 405.5 26.75 407.5 29.125 407.5C31.5 407.5 33.5 405.5 33.5 403.125C33.5 400.75 31.5 398.75 29.125 398.75Z" fill="#A1A5B7"/>
<path d="M35.375 403.125C35.375 406.625 32.625 409.375 29.125 409.375C25.625 409.375 22.875 406.625 22.875 403.125C22.875 399.625 25.625 396.875 29.125 396.875C32.625 396.875 35.375 399.625 35.375 403.125ZM29.125 400.625C27.75 400.625 26.625 401.75 26.625 403.125C26.625 404.5 27.75 405.625 29.125 405.625C30.5 405.625 31.625 404.5 31.625 403.125C31.625 401.75 30.5 400.625 29.125 400.625Z" fill="#A1A5B7"/>
<path d="M24.875 318.25L19 320.875V336.625L24.875 334V336.75L17.875 339.875C17.25 340.125 16.5 339.75 16.5 339V320.5C16.5 319.75 16.875 319.125 17.625 318.875L24.875 315.625V318.25Z" fill="#A1A5B7"/>
<path d="M33.125 337.75L39 335.125V319.375L33.125 322V319.25L40.125 316.125C40.75 315.875 41.5 316.25 41.5 317V335.5C41.5 336.25 41.125 336.875 40.375 337.125L33.125 340.375V337.75Z" fill="#A1A5B7"/>
<path opacity="0.3" d="M33.125 322L39 319.375V335.125L33.125 337.75V322Z" fill="#A1A5B7"/>
<path opacity="0.3" d="M24.875 318.25V315.5L33.25 319.25V322L24.875 318.25ZM24.875 334V336.75L33.25 340.5V337.75L24.875 334Z" fill="#A1A5B7"/>
<path opacity="0.3" d="M24.875 334L19 336.625V320.875L24.875 318.25V334Z" fill="#A1A5B7"/>
<path opacity="0.3" d="M19.0678 256.998C24.4316 247.71 30.9728 242.079 40.1603 240.518C40.3411 240.485 40.5271 240.497 40.7023 240.552C40.8775 240.607 41.0368 240.704 41.1667 240.834C41.2965 240.964 41.3931 241.123 41.4481 241.298C41.5032 241.474 41.5151 241.659 41.4828 241.84C39.9216 251.028 34.2903 257.569 25.0028 262.933L19.0678 256.998ZM18.7741 259.671L17.2916 263.56C17.2304 263.721 17.2169 263.895 17.2528 264.063C17.2887 264.231 17.3724 264.385 17.4938 264.507C17.6153 264.628 17.7692 264.712 17.9372 264.748C18.1051 264.784 18.2799 264.77 18.4403 264.709L22.3316 263.225L18.7741 259.671ZM34.6253 245.498C34.2545 245.498 33.892 245.608 33.5837 245.814C33.2753 246.02 33.035 246.313 32.8931 246.655C32.7512 246.998 32.714 247.375 32.7864 247.739C32.8587 248.102 33.0373 248.436 33.2995 248.699C33.5617 248.961 33.8958 249.139 34.2596 249.212C34.6233 249.284 35.0003 249.247 35.3429 249.105C35.6855 248.963 35.9783 248.723 36.1844 248.414C36.3904 248.106 36.5003 247.744 36.5003 247.373C36.5003 246.875 36.3028 246.399 35.9512 246.047C35.5995 245.695 35.1226 245.498 34.6253 245.498Z" fill="#A1A5B7"/>
<path d="M19.0678 256.998L16.809 254.739C16.6938 254.624 16.6068 254.483 16.5549 254.329C16.503 254.174 16.4876 254.01 16.5099 253.849C16.5322 253.687 16.5916 253.533 16.6834 253.398C16.7752 253.264 16.8969 253.152 17.039 253.073L25.4415 248.361C22.9669 250.965 20.8259 253.866 19.0678 256.998V256.998ZM25.0003 262.93L27.259 265.189C27.3743 265.304 27.5146 265.391 27.6691 265.443C27.8235 265.495 27.9879 265.51 28.1493 265.488C28.3107 265.466 28.4648 265.406 28.5994 265.315C28.7341 265.223 28.8456 265.101 28.9253 264.959L33.6365 256.555C31.0337 259.03 28.1326 261.172 25.0003 262.93V262.93ZM22.8003 260.729L29.729 253.8C29.9226 253.595 30.0285 253.322 30.0243 253.04C30.0202 252.758 29.9062 252.488 29.7067 252.289C29.5071 252.089 29.2377 251.975 28.9555 251.971C28.6733 251.967 28.4006 252.073 28.1953 252.266L21.2665 259.195L22.8003 260.729Z" fill="#A1A5B7"/>
<path opacity="0.3" d="M40.25 190.5H17.75C17 190.5 16.5 190 16.5 189.25V169.25C16.5 168.5 17 168 17.75 168H40.25C41 168 41.5 168.5 41.5 169.25V189.25C41.5 190 41 190.5 40.25 190.5Z" fill="#A1A5B7"/>
<path d="M21.5 170.5C20.75 170.5 20.25 170 20.25 169.25V166.75C20.25 166 20.75 165.5 21.5 165.5C22.25 165.5 22.75 166 22.75 166.75V169.25C22.75 170 22.25 170.5 21.5 170.5ZM27.75 169.25V166.75C27.75 166 27.25 165.5 26.5 165.5C25.75 165.5 25.25 166 25.25 166.75V169.25C25.25 170 25.75 170.5 26.5 170.5C27.25 170.5 27.75 170 27.75 169.25ZM32.75 169.25V166.75C32.75 166 32.25 165.5 31.5 165.5C30.75 165.5 30.25 166 30.25 166.75V169.25C30.25 170 30.75 170.5 31.5 170.5C32.25 170.5 32.75 170 32.75 169.25ZM37.75 169.25V166.75C37.75 166 37.25 165.5 36.5 165.5C35.75 165.5 35.25 166 35.25 166.75V169.25C35.25 170 35.75 170.5 36.5 170.5C37.25 170.5 37.75 170 37.75 169.25Z" fill="#A1A5B7"/>
<path d="M25 179.375C25.5 179.375 25.875 179.25 26.125 179C26.375 178.75 26.625 178.375 26.625 177.875C26.625 177.5 26.5 177.125 26.25 176.875C26 176.625 25.625 176.5 25.25 176.5C25 176.5 24.75 176.5 24.5 176.625C24.25 176.75 24.125 176.875 24 177C23.875 177.125 23.75 177.25 23.625 177.5C23.5 177.75 23.375 177.875 23.375 178.125C23.375 178.25 23.25 178.25 23.125 178.375C23 178.5 22.875 178.5 22.625 178.5C22.375 178.5 22.25 178.375 22.125 178.25C22 178.125 21.875 177.875 21.875 177.625C21.875 177.375 22 177.125 22.125 176.875C22.25 176.625 22.5 176.375 22.75 176.125C23 175.875 23.375 175.625 23.875 175.5C24.375 175.375 24.75 175.25 25.375 175.25C25.875 175.25 26.25 175.375 26.625 175.5C27 175.625 27.375 175.875 27.625 176C27.875 176.125 28.125 176.5 28.25 176.875C28.375 177.25 28.5 177.5 28.5 177.875C28.5 178.375 28.375 178.75 28.125 179.125C27.875 179.5 27.625 179.875 27.25 180.125C27.625 180.375 28 180.625 28.25 180.875C28.5 181.125 28.75 181.375 28.875 181.75C29 182.125 29.125 182.375 29.125 182.75C29.125 183.25 29 183.625 28.875 184C28.75 184.375 28.375 184.75 28.125 185.125C27.875 185.5 27.375 185.75 26.875 185.875C26.375 186 25.875 186.125 25.25 186.125C24.625 186.125 24.125 186 23.625 185.75C23.125 185.5 22.75 185.25 22.5 185C22.25 184.75 22 184.375 21.875 184C21.75 183.625 21.625 183.375 21.625 183.125C21.625 182.875 21.75 182.625 21.875 182.5C22 182.375 22.25 182.25 22.5 182.25C22.625 182.25 22.75 182.25 22.875 182.375C23 182.5 23.125 182.5 23.125 182.625C23.375 183.25 23.625 183.75 24 184.125C24.375 184.5 24.75 184.625 25.25 184.625C25.5 184.625 25.875 184.5 26.125 184.375C26.375 184.25 26.625 184 26.875 183.75C27.125 183.5 27.125 183.125 27.125 182.75C27.125 182.125 27 181.75 26.625 181.375C26.25 181 25.875 180.875 25.375 180.875C25.25 180.875 25.125 180.875 24.875 180.875C24.625 180.875 24.5 180.875 24.5 180.875C24.25 180.875 24 180.75 23.875 180.625C23.75 180.5 23.625 180.25 23.625 180.125C23.625 179.875 23.75 179.75 23.875 179.5C24 179.25 24.25 179.25 24.625 179.25H25V179.375ZM33.125 184.875V178.25C31.875 179.25 31 179.625 30.625 179.625C30.375 179.625 30.25 179.5 30.125 179.375C30 179.25 29.875 179 29.875 178.75C29.875 178.5 30 178.375 30.125 178.25C30.25 178.125 30.5 178 31 177.75C31.625 177.5 32.125 177.125 32.375 176.875C32.625 176.625 33 176.25 33.375 175.875C33.75 175.5 33.875 175.25 33.875 175.125C33.875 175 34.125 175 34.375 175C34.625 175 34.875 175.125 35 175.25C35.125 175.375 35.25 175.75 35.25 176.125V184.5C35.25 185.5 34.875 186 34.25 186C34 186 33.75 185.875 33.5 185.75C33.25 185.625 33.125 185.25 33.125 184.875Z" fill="#A1A5B7"/>
<path opacity="0.3" d="M16.625 100.5C17.75 95 22.375 90.875 28 90.5L25 93.5L27.875 96.75C26 97.125 24.375 98.25 23.5 100L19.625 103.5L16.625 100.5ZM38.125 102.375L34.5 105.5C33.625 107.375 32 108.75 29.875 109.125L32.75 112.375L29.75 115.375C35.375 115 40 110.75 41.125 105.375L38.125 102.375Z" fill="#A1A5B7"/>
<path d="M31.25 90.625C36.75 91.75 40.875 96.375 41.25 102L38.25 99L35 101.75C34.625 99.75 33.375 98.125 31.5 97.25L28.25 93.5L31.25 90.625ZM29.375 112.25L26.125 108.5C24.375 107.625 23.125 106 22.75 104L19.5 106.875L16.5 103.875C16.875 109.5 21.125 114.125 26.5 115.25L29.375 112.25Z" fill="#A1A5B7"/>
<rect width="58" height="58" rx="6" fill="#F5F8FA" fill-opacity="0.7"/>
<rect x="17.3333" y="17.3335" width="10.5" height="10.5" rx="2" fill="#3F4254"/>
<rect opacity="0.3" x="30.1667" y="17.3335" width="10.5" height="10.5" rx="2" fill="#3F4254"/>
<rect opacity="0.3" x="30.1667" y="30.1665" width="10.5" height="10.5" rx="2" fill="#3F4254"/>
<rect opacity="0.3" x="17.3333" y="30.1665" width="10.5" height="10.5" rx="2" fill="#3F4254"/>
</svg>
